<svg width="220" height="72" viewBox="0 0 220 72" fill="none" xmlns="http://www.w3.org/2000/svg">
  <defs>
    <linearGradient id="grad" x1="10" y1="10" x2="205" y2="62" gradientUnits="userSpaceOnUse">
      <stop stop-color="#ff1f3d"/>
      <stop offset="1" stop-color="#7a0718"/>
    </linearGradient>
    <filter id="glow" x="-10%" y="-10%" width="120%" height="120%">
      <feGaussianBlur stdDeviation="3" result="blur"/>
      <feMerge>
        <feMergeNode in="blur"/>
        <feMergeNode in="SourceGraphic"/>
      </feMerge>
    </filter>
  </defs>
  <rect x="4" y="4" width="212" height="64" rx="18" fill="#040404" stroke="url(#grad)" stroke-width="2"/>
  <path d="M30 36C30 26.6112 37.6112 19 47 19H55C64.3888 19 72 26.6112 72 36V36C72 45.3888 64.3888 53 55 53H47C37.6112 53 30 45.3888 30 36V36Z" fill="#111111" stroke="#ff1f3d"/>
  <path d="M49 29.5L57 36L49 42.5" stroke="#ff1f3d" stroke-width="3" stroke-linecap="round" stroke-linejoin="round" filter="url(#glow)"/>
  <path d="M79 22H125" stroke="#ff1f3d" stroke-width="3" stroke-linecap="round" filter="url(#glow)"/>
  <path d="M79 36H145" stroke="#ff4d5f" stroke-width="3" stroke-linecap="round"/>
  <path d="M79 50H132" stroke="#ff1f3d" stroke-width="3" stroke-linecap="round"/>
  <circle cx="177" cy="24" r="8" fill="#ff1f3d" filter="url(#glow)"/>
  <circle cx="177" cy="48" r="5" fill="#ff5c6b"/>
</svg>
